REM MD5 1bbea5db100947fa36ece18eaa61ca7a
FILE "Sabrina the Teenage Witch - A Twitch in Time! (USA).bin" BINARY
  TRACK 01 MODE2/2352
    INDEX 01 00:00:00
  TRACK 02 AUDIO
    INDEX 00 09:01:22
    INDEX 01 09:03:22
  TRACK 03 AUDIO
    INDEX 00 10:52:23
    INDEX 01 10:54:23
  TRACK 04 AUDIO
    INDEX 00 12:42:27
    INDEX 01 12:44:27
  TRACK 05 AUDIO
    INDEX 00 14:36:26
    INDEX 01 14:38:26
  TRACK 06 AUDIO
    INDEX 00 17:06:48
    INDEX 01 17:08:48
  TRACK 07 AUDIO
    INDEX 00 19:09:18
    INDEX 01 19:11:18
  TRACK 08 AUDIO
    INDEX 00 21:39:40
    INDEX 01 21:41:40
  TRACK 09 AUDIO
    INDEX 00 23:42:10
    INDEX 01 23:44:10
  TRACK 10 AUDIO
    INDEX 00 26:08:56
    INDEX 01 26:10:56
  TRACK 11 AUDIO
    INDEX 00 28:20:20
    INDEX 01 28:22:20
  TRACK 12 AUDIO
    INDEX 00 30:46:66
    INDEX 01 30:48:66
  TRACK 13 AUDIO
    INDEX 00 32:58:30
    INDEX 01 33:00:30
  TRACK 14 AUDIO
    INDEX 00 35:28:52
    INDEX 01 35:30:52
  TRACK 15 AUDIO
    INDEX 00 37:33:15
    INDEX 01 37:35:15
  TRACK 16 AUDIO
    INDEX 00 40:03:37
    INDEX 01 40:05:37
  TRACK 17 AUDIO
    INDEX 00 42:08:00
    INDEX 01 42:10:00
  TRACK 18 AUDIO
    INDEX 00 44:18:45
    INDEX 01 44:20:45
  TRACK 19 AUDIO
    INDEX 00 46:53:44
    INDEX 01 46:55:44
  TRACK 20 AUDIO
    INDEX 00 49:04:14
    INDEX 01 49:06:14
  TRACK 21 AUDIO
    INDEX 00 51:39:13
    INDEX 01 51:41:13
  TRACK 22 AUDIO
    INDEX 00 51:50:71
    INDEX 01 51:52:71
  TRACK 23 AUDIO
    INDEX 00 52:03:61
    INDEX 01 52:05:61
  TRACK 24 AUDIO
    INDEX 00 52:16:27
    INDEX 01 52:18:27
  TRACK 25 AUDIO
    INDEX 00 52:30:36
    INDEX 01 52:32:36
  TRACK 26 AUDIO
    INDEX 00 52:42:29
    INDEX 01 52:44:29
  TRACK 27 AUDIO
    INDEX 00 52:50:39
    INDEX 01 52:52:39
  TRACK 28 AUDIO
    INDEX 00 53:02:56
    INDEX 01 53:04:56
  TRACK 29 AUDIO
    INDEX 00 53:14:47
    INDEX 01 53:16:47
  TRACK 30 AUDIO
    INDEX 00 53:27:06
    INDEX 01 53:29:06
  TRACK 31 AUDIO
    INDEX 00 53:37:20
    INDEX 01 53:39:20
  TRACK 32 AUDIO
    INDEX 00 53:46:37
    INDEX 01 53:48:37
  TRACK 33 AUDIO
    INDEX 00 53:59:69
    INDEX 01 54:01:69
  TRACK 34 AUDIO
    INDEX 00 54:11:14
    INDEX 01 54:13:14
  TRACK 35 AUDIO
    INDEX 00 54:25:02
    INDEX 01 54:27:02
  TRACK 36 AUDIO
    INDEX 00 54:35:37
    INDEX 01 54:37:37
  TRACK 37 AUDIO
    INDEX 00 54:45:19
    INDEX 01 54:47:19
  TRACK 38 AUDIO
    INDEX 00 54:57:41
    INDEX 01 54:59:41
  TRACK 39 AUDIO
    INDEX 00 55:08:67
    INDEX 01 55:10:67
  TRACK 40 AUDIO
    INDEX 00 55:18:68
    INDEX 01 55:20:68
  TRACK 41 AUDIO
    INDEX 00 55:30:15
    INDEX 01 55:32:15
  TRACK 42 AUDIO
    INDEX 00 55:40:54
    INDEX 01 55:42:54
  TRACK 43 AUDIO
    INDEX 00 55:54:51
    INDEX 01 55:56:51
  TRACK 44 AUDIO
    INDEX 00 56:06:23
    INDEX 01 56:08:23
  TRACK 45 AUDIO
    INDEX 00 56:14:31
    INDEX 01 56:16:31
  TRACK 46 AUDIO
    INDEX 00 56:24:50
    INDEX 01 56:26:50
  TRACK 47 AUDIO
    INDEX 00 56:40:62
    INDEX 01 56:42:62
  TRACK 48 AUDIO
    INDEX 00 56:49:49
    INDEX 01 56:51:49
  TRACK 49 AUDIO
    INDEX 00 56:57:56
    INDEX 01 56:59:56
  TRACK 50 AUDIO
    INDEX 00 57:09:00
    INDEX 01 57:11:00
  TRACK 51 AUDIO
    INDEX 00 57:18:72
    INDEX 01 57:20:72
  TRACK 52 AUDIO
    INDEX 00 57:27:10
    INDEX 01 57:29:10
  TRACK 53 AUDIO
    INDEX 00 57:35:08
    INDEX 01 57:37:08
  TRACK 54 AUDIO
    INDEX 00 57:43:29
    INDEX 01 57:45:29
  TRACK 55 AUDIO
    INDEX 00 57:52:30
    INDEX 01 57:54:30
  TRACK 56 AUDIO
    INDEX 00 58:02:36
    INDEX 01 58:04:36
  TRACK 57 AUDIO
    INDEX 00 58:11:35
    INDEX 01 58:13:35
  TRACK 58 AUDIO
    INDEX 00 58:20:60
    INDEX 01 58:22:60
  TRACK 59 AUDIO
    INDEX 00 58:30:14
    INDEX 01 58:32:14
  TRACK 60 AUDIO
    INDEX 00 58:40:26
    INDEX 01 58:42:26
  TRACK 61 AUDIO
    INDEX 00 58:50:12
    INDEX 01 58:52:12
  TRACK 62 AUDIO
    INDEX 00 58:58:25
    INDEX 01 59:00:25
  TRACK 63 AUDIO
    INDEX 00 59:07:12
    INDEX 01 59:09:12
  TRACK 64 AUDIO
    INDEX 00 59:18:05
    INDEX 01 59:20:05
  TRACK 65 AUDIO
    INDEX 00 59:28:04
    INDEX 01 59:30:04
  TRACK 66 AUDIO
    INDEX 00 59:37:09
    INDEX 01 59:39:09
  TRACK 67 AUDIO
    INDEX 00 59:45:74
    INDEX 01 59:47:74
  TRACK 68 AUDIO
    INDEX 00 59:57:41
    INDEX 01 59:59:41
  TRACK 69 AUDIO
    INDEX 00 60:09:41
    INDEX 01 60:11:41
  TRACK 70 AUDIO
    INDEX 00 60:22:33
    INDEX 01 60:24:33
  TRACK 71 AUDIO
    INDEX 00 60:38:63
    INDEX 01 60:40:63
  TRACK 72 AUDIO
    INDEX 00 60:49:43
    INDEX 01 60:51:43
  TRACK 73 AUDIO
    INDEX 00 61:04:12
    INDEX 01 61:06:12
  TRACK 74 AUDIO
    INDEX 00 61:12:23
    INDEX 01 61:14:23
  TRACK 75 AUDIO
    INDEX 00 61:20:63
    INDEX 01 61:22:63
  TRACK 76 AUDIO
    INDEX 00 61:34:27
    INDEX 01 61:36:27
  TRACK 77 AUDIO
    INDEX 00 61:42:36
    INDEX 01 61:44:36
  TRACK 78 AUDIO
    INDEX 00 61:50:38
    INDEX 01 61:52:38
  TRACK 79 AUDIO
    INDEX 00 61:59:59
    INDEX 01 62:01:59
  TRACK 80 AUDIO
    INDEX 00 62:11:69
    INDEX 01 62:13:69
  TRACK 81 AUDIO
    INDEX 00 62:20:00
    INDEX 01 62:22:00
  TRACK 82 AUDIO
    INDEX 00 62:29:21
    INDEX 01 62:31:21
  TRACK 83 AUDIO
    INDEX 00 62:39:39
    INDEX 01 62:41:39
  TRACK 84 AUDIO
    INDEX 00 62:58:42
    INDEX 01 63:00:42
  TRACK 85 AUDIO
    INDEX 00 63:22:02
    INDEX 01 63:24:02
  TRACK 86 AUDIO
    INDEX 00 63:47:63
    INDEX 01 63:49:63
  TRACK 87 AUDIO
    INDEX 00 64:12:07
    INDEX 01 64:14:07
  TRACK 88 AUDIO
    INDEX 00 64:20:13
    INDEX 01 64:22:13
  TRACK 89 AUDIO
    INDEX 00 64:29:44
    INDEX 01 64:31:44
  TRACK 90 AUDIO
    INDEX 00 64:37:73
    INDEX 01 64:39:73
  TRACK 91 AUDIO
    INDEX 00 64:59:15
    INDEX 01 65:01:15
  TRACK 92 AUDIO
    INDEX 00 65:13:20
    INDEX 01 65:15:20
  TRACK 93 AUDIO
    INDEX 00 65:24:53
    INDEX 01 65:26:53
  TRACK 94 AUDIO
    INDEX 00 65:35:11
    INDEX 01 65:37:11
  TRACK 95 AUDIO
    INDEX 00 65:47:68
    INDEX 01 65:49:68
  TRACK 96 AUDIO
    INDEX 00 66:02:05
    INDEX 01 66:04:05
  TRACK 97 AUDIO
    INDEX 00 66:16:12
    INDEX 01 66:18:12
REM LEADOUT 69:19:44
